<svg width="0" height="0" class="hidden">
  <symbol fill="none" xmlns="http://www.w3.org/2000/svg" viewBox="0 0 41 41" id="icon2">
    <path d="M34.5329 0.25H6.1338C2.88944 0.25 0.25 2.88236 0.25 6.11803V34.4411C0.25 37.6767 2.88944 40.3091 6.1338 40.3091H34.5329C37.7773 40.3091 40.4167 37.6767 40.4167 34.4411V6.11803C40.4167 2.88236 37.7773 0.25 34.5329 0.25ZM38.0632 34.4411C38.0632 36.3824 36.4795 37.9619 34.5329 37.9619H6.1338C4.18724 37.9619 2.60352 36.3824 2.60352 34.4411V6.11803C2.60352 4.17669 4.18724 2.59721 6.1338 2.59721H34.5329C36.4795 2.59721 38.0632 4.17669 38.0632 6.11803V34.4411Z" fill="#070707" stroke="#ff0000ff" stroke-width="0.5"></path>
    <path d="M26.583 15.6172C27.4759 15.6432 28.3225 15.8445 29.085 16.3242C30.0621 16.9392 30.6576 17.8392 31.0068 18.9199C31.2791 19.7624 31.3692 20.6325 31.3701 21.5137C31.3723 24.0522 31.3704 26.5914 31.3701 29.1299C31.3701 29.1746 31.3663 29.219 31.3633 29.2705H27.082V22.084C27.082 21.5866 27.0451 21.0946 26.9199 20.6084C26.6606 19.6028 25.9698 19.1284 25.2324 19.0254C24.4966 18.9226 23.714 19.1896 23.2676 19.667C22.8208 20.1449 22.527 20.6867 22.5146 21.3564C22.5119 21.5133 22.5029 21.6732 22.5029 21.8311C22.502 24.2469 22.502 26.6632 22.502 29.0791V29.2695H18.2295V15.9355H22.5V17.7227L22.5098 17.7266C22.5205 17.7312 22.5324 17.7373 22.5439 17.7422L22.5547 17.7461L22.5625 17.7363C22.5929 17.6951 22.625 17.6541 22.6553 17.6123C23.0857 17.0145 23.579 16.4853 24.2344 16.1279C24.9666 15.7283 25.7585 15.5933 26.583 15.6172Z" fill="#070707" stroke="#070707" stroke-width="0.0306072"></path>
    <path d="M15.5691 15.9316V29.2783H11.3191V15.9316H15.5691Z" fill="#070707" stroke="#ff0000ff" stroke-width="0.0306072"></path>
    <path d="M13.627 9.2793C14.2971 9.27838 14.8691 9.51549 15.2734 9.92188C15.6777 10.3282 15.9156 10.9044 15.918 11.5811C15.9201 12.2505 15.6806 12.8221 15.2705 13.2256C14.8605 13.629 14.2788 13.8659 13.5957 13.8662C12.2633 13.8671 11.314 12.9152 11.3115 11.5762C11.3091 10.2365 12.2716 9.28122 13.627 9.2793Z" fill="#070707" stroke="#ff0000ff" stroke-width="0.0306072"></path>
  </symbol>
  <symbol fill="none" xmlns="http://www.w3.org/2000/svg" viewBox="0 0 40 40" id="icon8">
    <path d="M27.7607 0.5C33.7253 0.5 38.6084 5.48497 38.6084 11.6123V28.3857C38.6084 34.5133 33.7254 39.498 27.7705 39.498H11.3564C5.39055 39.498 0.500019 34.5216 0.5 28.4053V11.6221C0.5 5.49528 5.39134 0.509766 11.3564 0.509766H11.8564V0.5H27.7607ZM11.3564 2.58594C6.4438 2.58594 2.51891 6.61753 2.50879 11.6299V28.415C2.50888 33.4011 6.43595 37.4316 11.3564 37.4316H27.7705C32.6737 37.4316 36.5996 33.3994 36.5996 28.3955V11.6221C36.5996 6.61783 32.673 2.58594 27.7607 2.58594H11.3564ZM19.5635 9.7373C25.0679 9.7373 29.5928 14.3481 29.5928 20.0039C29.5927 25.6596 25.0679 30.2695 19.5635 30.2695C14.0591 30.2695 9.53422 25.6596 9.53418 20.0039C9.53418 14.3482 14.059 9.73733 19.5635 9.7373ZM19.5635 11.8135C15.1029 11.8135 11.543 15.4703 11.543 20.0039C11.543 24.5374 15.1029 28.1943 19.5635 28.1943C24.0241 28.1943 27.5839 24.5375 27.584 20.0039C27.584 15.4703 24.0241 11.8135 19.5635 11.8135ZM31.5967 6.66211C32.1466 6.66211 32.6003 7.10953 32.6006 7.69922C32.6006 8.28915 32.1468 8.7373 31.5967 8.7373C31.0466 8.73722 30.5928 8.28909 30.5928 7.69922C30.593 7.10958 31.0468 6.6622 31.5967 6.66211Z" fill="#070707" stroke="#ff0000ff"></path>
  </symbol>
  <symbol fill="none" xmlns="http://www.w3.org/2000/svg" viewBox="0 0 41 40" id="icon9">
    <g clip-path="url(#clip0_169_15)">
      <path d="M34.2354 0H5.87564C2.63578 0 0 2.62848 0 5.85938V34.1406C0 37.3715 2.63578 40 5.87564 40H34.2354C37.4753 40 40.111 37.3715 40.111 34.1406V5.85938C40.111 2.62848 37.4753 0 34.2354 0ZM37.7608 34.1406C37.7608 36.0791 36.1793 37.6562 34.2354 37.6562H5.87564C3.93178 37.6562 2.35026 36.0791 2.35026 34.1406V5.85938C2.35026 3.9209 3.93178 2.34375 5.87564 2.34375H34.2354C36.1793 2.34375 37.7608 3.9209 37.7608 5.85938V34.1406Z" fill="#070707" stroke="#ff0000ff" stroke-width="0.5"></path>
      <path d="M18.8804 16.4844C18.8804 13.8995 16.7719 11.7969 14.1799 11.7969H7.12915V28.2031H14.1799C16.7719 28.2031 18.8804 26.1005 18.8804 23.5156C18.8804 22.1167 18.262 20.8597 17.2839 20C18.262 19.1403 18.8804 17.8833 18.8804 16.4844ZM16.5302 23.5156C16.5302 24.808 15.4759 25.8594 14.1799 25.8594H9.47941V21.1719H14.1799C15.4759 21.1719 16.5302 22.2232 16.5302 23.5156ZM9.47941 18.8281V14.1406H14.1799C15.4759 14.1406 16.5302 15.192 16.5302 16.4844C16.5302 17.7768 15.4759 18.8281 14.1799 18.8281H9.47941Z" fill="#070707" stroke="#ff0000ff" stroke-width="0.5"></path>
      <path d="M27.1064 16.4844C23.8665 16.4844 21.2307 19.1129 21.2307 22.3438C21.2307 25.5746 23.8665 28.2031 27.1064 28.2031C29.1974 28.2031 31.1474 27.081 32.1952 25.2744L30.1608 24.1006C29.5316 25.1855 28.361 25.8594 27.1064 25.8594C25.5741 25.8594 24.2674 24.8798 23.7823 23.5156H32.982V22.3438C32.982 19.1129 30.3462 16.4844 27.1064 16.4844ZM23.7823 21.1719C24.2674 19.8077 25.5741 18.8281 27.1064 18.8281C28.6386 18.8281 29.9453 19.8077 30.4304 21.1719H23.7823Z" fill="#070707" stroke="#070707" stroke-width="0.5"></path>
      <path d="M22.4058 11.7969H31.8068V14.1406H22.4058V11.7969Z" fill="#070707" stroke="#ff0000ff" stroke-width="0.5"></path>
    </g>
    <defs>
      <clipPath id="clip0_169_15">
        <rect width="40.111" height="40" fill="white"></rect>
      </clipPath>
    </defs>
  </symbol>
  <symbol fill="none" xmlns="http://www.w3.org/2000/svg" viewBox="0 0 40 40" id="icon10">
    <path d="M19.5537 0.5C30.0406 0.5 38.6084 9.24581 38.6084 19.999C38.6084 30.7522 30.0406 39.498 19.5537 39.498C9.06702 39.4978 0.5 30.7521 0.5 19.999C0.5 9.24595 9.06702 0.500232 19.5537 0.5ZM23.5225 25.0088C20.1408 25.9927 16.6033 28.5444 13.9229 31.0049C12.628 32.1832 11.5824 33.3025 10.7432 34.2188L10.3311 34.6689L10.8535 34.9844C13.3991 36.5187 16.3555 37.4209 19.5449 37.4209C21.9385 37.4209 24.196 36.9154 26.2578 36.0244L26.6064 35.874L26.5547 35.498C26.0704 31.9245 25.2163 28.5186 24.1357 25.3291L23.9824 24.875L23.5225 25.0088ZM35.4512 24.3867C33.9911 24.2219 32.1396 24.0557 29.792 24.1436H29.7861C28.7751 24.1923 27.6988 24.2896 26.6045 24.4355L26.0098 24.5156L26.1953 25.0859C27.1191 27.9298 27.8834 30.9424 28.377 34.0762L28.501 34.8652L29.1562 34.4082C32.3422 32.1896 34.7523 28.8927 35.875 25.0225L36.04 24.4531L35.4512 24.3867ZM19.7188 15.9893C12.006 18.1804 5.21126 18.1137 3.09473 18.0283L2.6123 18.0088L2.5752 18.4893C2.53784 18.9764 2.49902 19.4768 2.49902 20.0088C2.49907 25.2424 4.76315 29.9145 8.33398 33.1113L8.70703 33.4453L9.04004 33.0723C9.93517 32.0709 11.136 30.7951 12.5957 29.4639L12.5977 29.4619C15.3439 26.9303 18.8776 24.2518 22.7266 23.083L23.2432 22.9258L23.0469 22.4229C22.1853 20.2152 21.2582 18.1628 20.3027 16.2471L20.1172 15.876L19.7188 15.9893ZM31.6797 8.625C30.0237 10.6461 27.1488 13.2715 22.5967 15.0527L22.0898 15.251L22.3301 15.7393C23.3115 17.7373 24.2633 19.8667 25.1309 22.166L25.2744 22.5449L25.6748 22.4834C28.9671 21.9807 32.0104 21.9802 34.3096 22.1602V22.1611C34.9872 22.2173 35.3741 22.2814 35.9268 22.3594L36.4385 22.4316L36.4941 21.918C36.5616 21.2874 36.5996 20.6536 36.5996 19.999C36.5996 15.6455 35.0223 11.6772 32.4492 8.62012L32.0615 8.15918L31.6797 8.625ZM12.3838 4.21094C7.88775 6.33179 4.48136 10.3832 3.13672 15.3301L2.9707 15.9404L3.60352 15.9609C6.07941 16.0389 11.998 15.9218 18.5557 14.165L19.1738 13.999L18.8633 13.4395C16.3201 8.85624 14.1814 5.92273 12.9961 4.36133L12.751 4.03809L12.3838 4.21094ZM19.5537 2.57715C18.1347 2.57719 16.7587 2.77589 15.4561 3.10156L14.7295 3.2832L15.1758 3.88477C16.5664 5.75564 18.5646 8.58152 20.957 13.0068L21.1631 13.3887L21.5703 13.2373C26.0974 11.5563 28.8109 8.98526 30.2959 7.11914L30.6016 6.73438L30.2227 6.42188C27.3073 4.01482 23.6045 2.57715 19.5537 2.57715Z" fill="#070707" stroke="#ff0000ff"></path>
  </symbol>
</svg>